<?xml version="1.0" encoding="UTF-8" standalone="no"?>
<!-- Created with Inkscape (http://www.inkscape.org/) -->

<svg
   xmlns:dc="http://purl.org/dc/elements/1.1/"
   xmlns:cc="http://creativecommons.org/ns#"
   xmlns:rdf="http://www.w3.org/1999/02/22-rdf-syntax-ns#"
   xmlns:svg="http://www.w3.org/2000/svg"
   xmlns="http://www.w3.org/2000/svg"
   xmlns:sodipodi="http://sodipodi.sourceforge.net/DTD/sodipodi-0.dtd"
   xmlns:inkscape="http://www.inkscape.org/namespaces/inkscape"
   width="744.09448819"
   height="1052.3622047"
   id="svg2"
   version="1.1"
   inkscape:version="0.48.3.1 r9886"
   sodipodi:docname="New document 1">
  <defs
     id="defs4">
    <inkscape:perspective
       sodipodi:type="inkscape:persp3d"
       inkscape:vp_x="0 : 526.18109 : 1"
       inkscape:vp_y="0 : 1000 : 0"
       inkscape:vp_z="744.09448 : 526.18109 : 1"
       inkscape:persp3d-origin="372.04724 : 350.78739 : 1"
       id="perspective2988" />
  </defs>
  <sodipodi:namedview
     id="base"
     pagecolor="#ffffff"
     bordercolor="#666666"
     borderopacity="1.0"
     inkscape:pageopacity="0.0"
     inkscape:pageshadow="2"
     inkscape:zoom="1"
     inkscape:cx="375"
     inkscape:cy="520.92857"
     inkscape:document-units="px"
     inkscape:current-layer="layer2"
     showgrid="false"
     inkscape:window-width="929"
     inkscape:window-height="834"
     inkscape:window-x="1960"
     inkscape:window-y="94"
     inkscape:window-maximized="0" />
  <metadata
     id="metadata7">
    <rdf:RDF>
      <cc:Work
         rdf:about="">
        <dc:format>image/svg+xml</dc:format>
        <dc:type
           rdf:resource="http://purl.org/dc/dcmitype/StillImage" />
        <dc:title></dc:title>
      </cc:Work>
    </rdf:RDF>
  </metadata>
  <g
     inkscape:label="Layer 1"
     inkscape:groupmode="layer"
     id="layer1" />
  <g
     inkscape:groupmode="layer"
     id="layer2"
     inkscape:label="Frame">
    <rect
       style="fill:#00ff00;fill-rule:evenodd;stroke:#000000;stroke-width:1.24518466px;stroke-linecap:butt;stroke-linejoin:miter;stroke-opacity:1"
       id="rect2986"
       width="43.897667"
       height="39.897667"
       x="257.12143"
       y="399.91745" />
    <path
       style="fill:#000000;fill-opacity:1;fill-rule:nonzero;stroke:none"
       id="path3032"
       d="m 263.95178,435.25677 c -0.10008,-1.26395 -0.47447,-2.47973 -0.82805,-3.67728 -0.46495,-1.50342 -0.77139,-3.0558 -1.0477,-4.61472 -0.28772,-1.8092 -0.33745,-3.64857 -0.38029,-5.48132 -0.009,-1.64297 0.16753,-3.27006 0.36403,-4.89381 0.16636,-1.14026 0.35664,-2.2659 0.72008,-3.34782 0.29907,-0.71859 0.60433,-1.44034 0.99791,-2.09991 1.39125,-2.01806 3.67253,-2.89113 5.58469,-4.13583 0.61505,-0.19071 1.25896,-0.19412 1.89215,-0.19523 0.90986,-0.0632 1.78491,0.12482 2.58894,0.60662 0.70978,0.43892 1.36158,1.03082 1.9396,1.67105 0.50441,0.47327 0.89524,1.0776 1.2751,1.67576 0.38949,0.65029 0.74858,1.32423 1.1168,1.99063 0.43527,0.91485 0.88424,1.82323 1.25969,2.77223 0.31975,0.8381 0.64931,1.66542 1.03889,2.46445 0.31576,0.46332 0.24842,1.356 0.712,1.67239 0.557,-1.85998 0.075,-0.15486 -4.25478,2.4455 -0.0598,0.0359 0.13541,-0.0469 0.18142,-0.10299 0.28004,-0.34131 0.43839,-0.9656 0.60312,-1.37623 0.54825,-1.34849 1.03431,-2.72968 1.52773,-4.1051 0.43128,-1.15594 0.78492,-2.3448 1.15159,-3.52766 0.24458,-0.71868 0.4954,-1.44004 0.80399,-2.12732 0.20572,-0.55165 0.64119,-0.87878 1.02012,-1.26368 1.49688,-0.99105 3.05015,-1.88057 4.49062,-2.97313 1.30426,-0.98926 -2.71748,1.78155 -4.08118,2.66258 -0.0721,0.0465 0.13359,-0.11214 0.20564,-0.15875 2.52105,-1.63102 3.07718,-2.68722 5.08759,-3.02139 0.71347,-0.16921 1.32275,0.0166 1.98886,0.28358 0.66725,0.33516 1.19904,0.81168 1.64595,1.45915 0.51812,0.73205 0.91213,1.54207 1.2235,2.4077 0.32987,0.87821 0.56826,1.79121 0.87805,2.67827 0.28512,0.93447 0.47292,1.91204 0.64099,2.88236 0.16891,0.96453 0.20199,1.94636 0.22855,2.92601 0.007,1.04747 0.0102,2.09509 0.004,3.14259 7.3e-4,1.01679 -0.001,2.03349 0.004,3.05028 0.0275,0.79606 0.0173,1.57902 -0.11513,2.36192 -0.0955,0.65311 -0.17068,1.30189 -0.32038,1.94266 -0.14207,0.66331 -0.42944,1.26188 -0.68133,1.87596 -0.24259,0.41979 -0.36498,0.90124 -0.54013,1.35646 0,0 -4.55064,2.36426 -4.55064,2.36426 l 0,0 c 0.17502,-0.47424 0.32463,-0.95107 0.52021,-1.41506 0.31994,-0.52751 0.51859,-1.15362 0.73943,-1.73941 0.13446,-0.64036 0.30517,-1.25489 0.33553,-1.91929 0.13736,-0.761 0.25527,-1.4981 0.19267,-2.28327 0.007,-1.01964 0.005,-2.03922 0.01,-3.05886 -0.004,-1.04076 0.009,-2.08165 -0.0121,-3.1223 -0.0138,-0.95094 -0.0432,-1.90497 -0.18502,-2.8445 -0.16262,-0.93914 -0.34168,-1.88233 -0.59868,-2.79342 -0.30597,-0.88795 -0.57444,-1.78718 -0.88109,-2.67411 -0.28016,-0.82284 -0.67516,-1.56798 -1.17239,-2.24899 -0.3985,-0.54991 -0.8946,-0.93651 -1.48613,-1.18619 -0.61726,-0.20856 -1.22211,-0.2147 -1.84847,-0.0215 -0.17007,0.0613 -0.65387,0.3191 -0.49989,0.21705 1.35169,-0.89589 2.7138,-1.77157 4.06849,-2.66165 0.0702,-0.0461 -0.14468,0.0833 -0.21474,0.12959 -1.49561,0.98784 -2.98833,1.98127 -4.48212,2.97262 -1.35378,0.89844 2.70807,-1.79591 4.0621,-2.69387 -0.40012,0.29935 -0.76544,0.67836 -1.11876,1.03878 -0.30711,0.68959 -0.63189,1.37336 -0.86103,2.10365 -0.46661,1.15655 -0.74327,2.40744 -1.22208,3.5609 -0.46916,1.37805 -0.98632,2.74026 -1.48425,4.10279 -0.71969,1.9633 -1.88281,7.49109 -5.29382,4.32642 -0.3798,-0.54323 -0.49776,-1.22288 -0.74768,-1.84413 -0.37824,-0.82385 -0.70286,-1.67203 -1.02181,-2.52729 -0.34949,-0.93317 -0.81859,-1.79326 -1.24765,-2.68141 -0.36951,-0.65334 -0.73142,-1.31324 -1.12443,-1.94841 -0.36059,-0.57307 -0.73631,-1.13815 -1.21044,-1.59968 -0.54899,-0.58891 -1.14978,-1.15065 -1.83064,-1.5308 -0.79903,-0.3627 -1.61754,-0.46132 -2.47569,-0.37555 -0.60848,0.0392 -1.23652,0.0675 -1.77994,0.41585 8.79306,-5.79433 3.89739,-2.98774 2.90446,-1.61467 -0.48563,0.56847 -0.69691,1.30875 -1.08215,1.95866 -0.3878,1.05457 -0.66026,2.12608 -0.81949,3.25888 -0.22737,1.60606 -0.44576,3.21133 -0.46001,4.84293 0.0334,1.7991 0.0847,3.60605 0.36789,5.38133 0.27085,1.53625 0.58062,3.06207 1.03387,4.54463 0.35814,1.20898 0.74855,2.41367 0.98144,3.66291 0,0 -4.43159,2.67711 -4.43159,2.67711 z"
       inkscape:connector-curvature="0" />
  </g>
</svg>
