<?xml version="1.0" encoding="UTF-8" standalone="no"?>
<!-- Created with Inkscape (http://www.inkscape.org/) -->

<svg
   xmlns:dc="http://purl.org/dc/elements/1.1/"
   xmlns:cc="http://creativecommons.org/ns#"
   xmlns:rdf="http://www.w3.org/1999/02/22-rdf-syntax-ns#"
   xmlns:svg="http://www.w3.org/2000/svg"
   xmlns="http://www.w3.org/2000/svg"
   xmlns:sodipodi="http://sodipodi.sourceforge.net/DTD/sodipodi-0.dtd"
   xmlns:inkscape="http://www.inkscape.org/namespaces/inkscape"
   width="744.09448819"
   height="1052.3622047"
   id="svg2"
   version="1.1"
   inkscape:version="0.48.3.1 r9886"
   sodipodi:docname="market.png">
  <defs
     id="defs4">
    <inkscape:perspective
       sodipodi:type="inkscape:persp3d"
       inkscape:vp_x="0 : 526.18109 : 1"
       inkscape:vp_y="0 : 1000 : 0"
       inkscape:vp_z="744.09448 : 526.18109 : 1"
       inkscape:persp3d-origin="372.04724 : 350.78739 : 1"
       id="perspective2988" />
  </defs>
  <sodipodi:namedview
     id="base"
     pagecolor="#ffffff"
     bordercolor="#666666"
     borderopacity="1.0"
     inkscape:pageopacity="0.0"
     inkscape:pageshadow="2"
     inkscape:zoom="1"
     inkscape:cx="375"
     inkscape:cy="520.92857"
     inkscape:document-units="px"
     inkscape:current-layer="layer2"
     showgrid="false"
     inkscape:window-width="929"
     inkscape:window-height="834"
     inkscape:window-x="1960"
     inkscape:window-y="94"
     inkscape:window-maximized="0" />
  <metadata
     id="metadata7">
    <rdf:RDF>
      <cc:Work
         rdf:about="">
        <dc:format>image/svg+xml</dc:format>
        <dc:type
           rdf:resource="http://purl.org/dc/dcmitype/StillImage" />
        <dc:title></dc:title>
      </cc:Work>
    </rdf:RDF>
  </metadata>
  <g
     inkscape:label="Layer 1"
     inkscape:groupmode="layer"
     id="layer1" />
  <g
     inkscape:groupmode="layer"
     id="layer2"
     inkscape:label="Frame">
    <path
       sodipodi:type="spiral"
       style="fill:#ff0000;stroke:#000000;stroke-width:1px;stroke-linecap:butt;stroke-linejoin:miter;stroke-opacity:1"
       id="path3030"
       sodipodi:cx="361"
       sodipodi:cy="540.36218"
       sodipodi:expansion="1"
       sodipodi:revolution="2.9872947"
       sodipodi:radius="13.543867"
       sodipodi:argument="-19.478352"
       sodipodi:t0="0"
       d="m 361,540.36218 c 0.55152,-0.4011 0.81279,0.54555 0.66667,0.91667 -0.39598,1.00571 -1.75742,0.96246 -2.5,0.41666 -1.32831,-0.9763 -1.1911,-2.94526 -0.16667,-4.08333 1.50339,-1.67016 4.15026,-1.42934 5.66667,0.0833 2.02113,2.01617 1.67187,5.36148 -0.33334,7.25 -2.52335,2.37651 -6.57569,1.91664 -8.83333,-0.58334 -2.7343,-3.02782 -2.16273,-7.79161 0.83334,-10.41667 3.53076,-3.09354 9.00857,-2.40962 12,1.08334 3.45372,4.03277 2.65707,10.22625 -1.33334,13.58334 -4.53417,3.81453 -11.44442,2.9049 -15.16667,-1.58335 -4.1758,-5.03514 -3.15302,-12.66295 1.83334,-16.75 5.21246,-4.27236 13.01609,-3.55331 17.61661,1.26912"
       transform="matrix(1.874637,0,0,1.5644277,-264.09435,-421.35806)" />
  </g>
</svg>
